<?xml version="1.0" encoding="UTF-8"?>
<svg version="1.1" xmlns="http://www.w3.org/2000/svg" width="1035" height="241">
<path d="M0 0 C1.671875 1.37109375 1.671875 1.37109375 3.984375 3.62109375 C4.314375 1.64109375 4.644375 -0.33890625 4.984375 -2.37890625 C13.564375 -2.37890625 22.144375 -2.37890625 30.984375 -2.37890625 C30.984375 25.34109375 30.984375 53.06109375 30.984375 81.62109375 C22.404375 81.62109375 13.824375 81.62109375 4.984375 81.62109375 C4.654375 79.97109375 4.324375 78.32109375 3.984375 76.62109375 C3.47390625 77.01941406 2.9634375 77.41773438 2.4375 77.828125 C-6.24426462 84.15473007 -15.30128951 86.56899903 -26.00390625 85.25390625 C-37.60677933 82.81594848 -47.83026658 76.70055439 -54.66796875 66.9296875 C-61.49105136 55.24145034 -63.98136247 42.53964336 -61.33203125 29.171875 C-57.64237466 16.23511228 -51.07560545 5.70974228 -39.1015625 -1.015625 C-26.63576263 -6.87891901 -11.86889635 -8.1196132 0 0 Z M-33.015625 29.62109375 C-36.05279739 34.60845052 -35.57479821 39.97126574 -35.015625 45.62109375 C-33.42074958 52.0648186 -29.63556178 55.08902495 -24.13671875 58.4921875 C-19.38053231 61.02356482 -14.93781049 61.49674865 -9.734375 59.9375 C-3.06854545 57.26005846 0.87688599 53.47517655 3.859375 46.87109375 C5.72428059 41.25494128 5.25120473 35.86168944 3.109375 30.3828125 C0.10873289 24.85037862 -4.06467989 21.61392568 -10.015625 19.62109375 C-20.4543407 17.96438747 -26.89598061 21.22843859 -33.015625 29.62109375 Z " fill="#252525" transform="translate(953.015625,74.37890625)"/>
<path d="M0 0 C0 22.11 0 44.22 0 67 C22.11 67 44.22 67 67 67 C65.69591201 72.86839597 64.45939469 77.94733399 62.4375 83.5 C62.00308594 84.7065625 61.56867188 85.913125 61.12109375 87.15625 C60 90 60 90 59 91 C56.41899244 91.10039611 53.86472103 91.13617269 51.28320312 91.12939453 C50.07107399 91.13202301 50.07107399 91.13202301 48.8344574 91.13470459 C46.1500334 91.13912376 43.46567472 91.13618489 40.78125 91.1328125 C38.92419421 91.13348552 37.0671385 91.13445553 35.21008301 91.13571167 C31.31273563 91.13718873 27.41541113 91.13503382 23.51806641 91.13037109 C18.510655 91.1246738 13.50329719 91.12795276 8.49588776 91.13394356 C4.65960279 91.13754895 0.82333063 91.13641069 -3.01295471 91.13381577 C-4.85982774 91.13314644 -6.70670192 91.13397513 -8.55357361 91.13629532 C-11.13014832 91.13882149 -13.70663501 91.13498177 -16.28320312 91.12939453 C-17.0541481 91.13141876 -17.82509308 91.13344299 -18.61940002 91.13552856 C-23.88573745 91.11426255 -23.88573745 91.11426255 -25 90 C-25.12163688 87.46048349 -25.17859963 84.94766541 -25.19287109 82.40673828 C-25.20104858 81.61161835 -25.20922607 80.81649841 -25.21765137 79.99728394 C-25.24255008 77.35496791 -25.25903173 74.71270572 -25.2734375 72.0703125 C-25.27876118 71.17030392 -25.28408485 70.27029533 -25.28956985 69.34301376 C-25.31631952 64.58040975 -25.33568952 59.81783214 -25.35009766 55.05517578 C-25.36676009 50.12614381 -25.41154565 45.1977786 -25.4624691 40.2689991 C-25.49606074 36.48753049 -25.50766613 32.70622176 -25.51332474 28.92461777 C-25.52005852 27.1072568 -25.53533546 25.28990713 -25.55921555 23.47269058 C-25.59070149 20.93191825 -25.5909297 18.39296552 -25.58349609 15.85205078 C-25.59990143 15.09764709 -25.61630676 14.34324341 -25.63320923 13.565979 C-25.60800171 11.46707153 -25.60800171 11.46707153 -25 8 C-22.59356689 6.06594849 -22.59356689 6.06594849 -20 5 C-19.31341309 4.70061523 -18.62682617 4.40123047 -17.91943359 4.09277344 C-15.74113383 3.30229114 -13.56116123 2.51851401 -11.375 1.75 C-10.611875 1.46898437 -9.84875 1.18796875 -9.0625 0.8984375 C-3.36356027 -1.12118676 -3.36356027 -1.12118676 0 0 Z " fill="#FA4C48" transform="translate(151,25)"/>
<path d="M0 0 C3.6281781 1.11492282 7.2519203 2.24362939 10.875 3.375 C11.90753906 3.69210938 12.94007812 4.00921875 14.00390625 4.3359375 C14.99003906 4.6453125 15.97617188 4.9546875 16.9921875 5.2734375 C18.35899658 5.69761963 18.35899658 5.69761963 19.75341797 6.13037109 C22 7 22 7 24 9 C24.19315817 11.61474623 24.26230952 14.12311913 24.24291992 16.73852539 C24.24481827 17.53700394 24.24671661 18.33548248 24.24867249 19.15815735 C24.25238561 21.80475598 24.24166936 24.4510819 24.23046875 27.09765625 C24.22927724 28.9308621 24.22882373 30.76406856 24.2290802 32.59727478 C24.22751446 36.44159764 24.21921725 40.28582749 24.20581055 44.13012695 C24.18880862 49.06913537 24.18499649 54.00804159 24.18575573 58.94707584 C24.18548442 62.73275232 24.18000976 66.51840625 24.17275429 70.30407524 C24.16956212 72.12582669 24.16759894 73.9475807 24.16686058 75.76933479 C24.16470347 78.30989097 24.15597333 80.85033654 24.14526367 83.39086914 C24.14571686 84.15089233 24.14617004 84.91091553 24.14663696 85.69396973 C24.11447477 90.88552523 24.11447477 90.88552523 23 92 C20.41360962 92.09507821 17.8540144 92.12556376 15.26733398 92.11352539 C14.05279541 92.11374443 14.05279541 92.11374443 12.8137207 92.1139679 C10.12448492 92.11326854 7.43531751 92.1054751 4.74609375 92.09765625 C2.88664284 92.09579215 1.02719144 92.09436821 -0.83226013 92.09336853 C-5.73629096 92.08954271 -10.64029236 92.07971188 -15.54431152 92.06866455 C-20.54451092 92.05845181 -25.54471506 92.05387121 -30.54492188 92.04882812 C-40.36329421 92.03808967 -50.18164466 92.02101248 -60 92 C-60.79718352 90.1061459 -61.59236468 88.21144887 -62.38671875 86.31640625 C-62.82975342 85.26138916 -63.27278809 84.20637207 -63.72924805 83.11938477 C-68 72.63573487 -68 72.63573487 -68 68 C-45.89 68 -23.78 68 -1 68 C-1.03961349 45.9952271 -1.03961349 45.9952271 -1.09008789 23.99047852 C-1.09300673 21.24495482 -1.09555536 18.49943069 -1.09765625 15.75390625 C-1.10026962 15.0358934 -1.102883 14.31788055 -1.10557556 13.57810974 C-1.11285571 11.47335481 -1.11390733 9.36868158 -1.11352539 7.26391602 C-1.115746 6.07588882 -1.11796661 4.88786163 -1.12025452 3.66383362 C-1 1 -1 1 0 0 Z " fill="#01DBFD" transform="translate(92,24)"/>
<path d="M0 0 C28.05 0 56.1 0 85 0 C92 20 92 20 92 24 C69.89 24 47.78 24 25 24 C25 46.11 25 68.22 25 91 C18.60911639 89.72182328 13.38980818 88.62632902 7.4375 86.4375 C6.23996094 86.00308594 5.04242188 85.56867188 3.80859375 85.12109375 C1 84 1 84 0 83 C-0.09507964 80.41357081 -0.12555068 77.85405064 -0.11352539 75.26733398 C-0.11364593 74.44450204 -0.11376646 73.62167009 -0.11389065 72.77390385 C-0.11314145 70.09794009 -0.10551294 67.42204512 -0.09765625 64.74609375 C-0.09618685 63.09899936 -0.09516613 61.45190452 -0.09460449 59.80480957 C-0.08935137 53.68236595 -0.07539029 47.55993231 -0.0625 41.4375 C-0.041875 27.763125 -0.02125 14.08875 0 0 Z " fill="#F8B405" transform="translate(126,127)"/>
<path d="M0 0 C28.05 0 56.1 0 85 0 C85 27.39 85 54.78 85 83 C74.67462687 87.58905473 74.67462687 87.58905473 69.125 89.3125 C68.03445312 89.65925781 66.94390625 90.00601563 65.8203125 90.36328125 C63 91 63 91 60 90 C60 68.55 60 47.1 60 25 C26.835 24.505 26.835 24.505 -7 24 C-5 15 -5 15 0 0 Z " fill="#2EB77F" transform="translate(31,127)"/>
<path d="M0 0 C2.21484375 1.71875 2.21484375 1.71875 4.21484375 4.71875 C4.27542969 4.00847656 4.33601562 3.29820313 4.3984375 2.56640625 C4.52412109 1.18775391 4.52412109 1.18775391 4.65234375 -0.21875 C4.77416016 -1.59353516 4.77416016 -1.59353516 4.8984375 -2.99609375 C5.21484375 -5.28125 5.21484375 -5.28125 6.21484375 -6.28125 C10.17484375 -6.28125 14.13484375 -6.28125 18.21484375 -6.28125 C18.21484375 21.10875 18.21484375 48.49875 18.21484375 76.71875 C13.92484375 76.71875 9.63484375 76.71875 5.21484375 76.71875 C4.88484375 73.41875 4.55484375 70.11875 4.21484375 66.71875 C3.16296875 67.770625 2.11109375 68.8225 1.02734375 69.90625 C-7.26712787 77.11819799 -17.92685025 79.97335855 -28.78515625 79.71875 C-32.26740628 79.41478637 -35.44053909 78.72622642 -38.78515625 77.71875 C-40.20441406 77.29142578 -40.20441406 77.29142578 -41.65234375 76.85546875 C-52.90809876 72.83555625 -61.18185343 65.38378728 -66.97265625 55.03125 C-71.75618746 44.39080984 -72.30943384 31.87609709 -68.78515625 20.71875 C-66.69953417 15.7004443 -64.3336923 10.87290286 -60.78515625 6.71875 C-60.12515625 6.71875 -59.46515625 6.71875 -58.78515625 6.71875 C-58.55441406 6.1309375 -58.32367187 5.543125 -58.0859375 4.9375 C-53.91478593 -2.17725704 -43.65778689 -5.55115485 -36.11328125 -7.625 C-22.59988157 -10.28961402 -11.355597 -7.42919976 0 0 Z M-52.78515625 15.71875 C-58.68218469 23.48729046 -59.33258478 32.51205804 -58.2421875 41.90625 C-56.7909508 50.83693738 -52.64705011 56.74027362 -45.78515625 62.71875 C-37.57024358 67.63423053 -28.857446 70.04550706 -19.328125 68.2578125 C-8.95135346 65.54805649 -2.07832915 59.22640596 3.46484375 50.21875 C7.24958646 42.64926459 7.50372437 33.04073458 4.96484375 24.96875 C3.45262858 20.95305901 1.46519657 17.36587353 -0.78515625 13.71875 C-1.44515625 13.71875 -2.10515625 13.71875 -2.78515625 13.71875 C-2.78515625 13.05875 -2.78515625 12.39875 -2.78515625 11.71875 C-10.92284242 4.95618209 -18.86284969 2.0192884 -29.40625 2.3125 C-39.25894122 3.49710103 -46.6645509 8.03103313 -52.78515625 15.71875 Z " fill="#252525" transform="translate(721.78515625,79.28125)"/>
<path d="M0 0 C2.78922156 2.20995222 5.47872827 4.47091577 7.99609375 6.98828125 C8.32609375 3.35828125 8.65609375 -0.27171875 8.99609375 -4.01171875 C12.95609375 -4.01171875 16.91609375 -4.01171875 20.99609375 -4.01171875 C20.99609375 23.37828125 20.99609375 50.76828125 20.99609375 78.98828125 C17.03609375 78.98828125 13.07609375 78.98828125 8.99609375 78.98828125 C8.66609375 75.35828125 8.33609375 71.72828125 7.99609375 67.98828125 C7.00609375 69.06078125 6.01609375 70.13328125 4.99609375 71.23828125 C1.34584156 74.88853344 -2.25668497 77.04221538 -7.00390625 78.98828125 C-7.91140625 79.38015625 -8.81890625 79.77203125 -9.75390625 80.17578125 C-22.43324531 83.34561602 -35.18831007 81.83697224 -46.6953125 75.48828125 C-57.89256878 68.21290661 -64.71418019 57.97981313 -67.69140625 44.98828125 C-69.07862153 31.67101459 -65.66228131 19.25039396 -57.1875 8.734375 C-42.87540447 -6.50294691 -18.15372717 -12.15756761 0 0 Z M-47.56640625 15.61328125 C-48.40644128 16.71787276 -49.21698027 17.84524636 -50.00390625 18.98828125 C-50.473125 19.65214844 -50.94234375 20.31601563 -51.42578125 21 C-56.10687354 28.7448409 -56.13008484 37.21356707 -55.00390625 45.98828125 C-54.15308487 49.41057955 -52.92523701 52.04624353 -51.00390625 54.98828125 C-50.59140625 55.68179688 -50.17890625 56.3753125 -49.75390625 57.08984375 C-45.15700404 64.06355336 -38.4020487 68.3763657 -30.31640625 70.36328125 C-20.42237192 72.04111574 -12.17300037 70.31986707 -3.75390625 64.86328125 C2.64208582 60.10651356 7.19936582 53.82854857 8.99609375 45.98828125 C9.14046875 45.36953125 9.28484375 44.75078125 9.43359375 44.11328125 C10.84289184 36.12725872 9.42606398 27.39941453 5.515625 20.30078125 C0.22520675 13.13389887 -7.08841952 6.80134662 -16.00390625 4.98828125 C-28.25774891 3.7141333 -38.81681485 6.65028519 -47.56640625 15.61328125 Z " fill="#252525" transform="translate(325.00390625,77.01171875)"/>
<path d="M0 0 C2.0305395 1.72539349 3.92827817 3.49077817 5.8125 5.375 C6.1425 1.745 6.4725 -1.885 6.8125 -5.625 C10.7725 -5.625 14.7325 -5.625 18.8125 -5.625 C18.8125 21.765 18.8125 49.155 18.8125 77.375 C14.8525 77.375 10.8925 77.375 6.8125 77.375 C6.4825 73.745 6.1525 70.115 5.8125 66.375 C4.8225 67.4475 3.8325 68.52 2.8125 69.625 C-0.83775219 73.27525219 -4.44027872 75.42893413 -9.1875 77.375 C-10.095 77.766875 -11.0025 78.15875 -11.9375 78.5625 C-24.62337787 81.73396947 -37.36122851 80.21457463 -48.87890625 73.87890625 C-58.25202459 67.77289853 -65.82717179 59.43973052 -68.71875 48.44140625 C-70.66072163 35.73767515 -70.20043257 23.21359944 -63.0625 12.25 C-55.67165026 2.38003923 -45.99621068 -5.1053652 -33.65234375 -7.33984375 C-21.52555056 -8.74278496 -9.94612846 -7.62271285 0 0 Z M-41.1875 7.375 C-42.239375 7.973125 -43.29125 8.57125 -44.375 9.1875 C-51.36672917 14.62551157 -55.22871795 20.67052473 -57.1875 29.375 C-58.39241861 40.18238225 -56.94537057 49.94688012 -50.1875 58.6875 C-43.70449107 65.50728862 -34.74114958 68.99848138 -25.5 69.625 C-15.72889439 69.44098671 -8.33369688 65.44972193 -1.5 58.7109375 C4.4969614 52.14426477 7.57002822 45.56146467 7.4375 36.625 C7.428396 35.8407666 7.41929199 35.0565332 7.40991211 34.24853516 C7.03351698 24.66274369 3.43984171 17.54467775 -3.4375 10.875 C-11.37064192 4.53904639 -18.72946779 2.67676449 -28.84765625 2.984375 C-33.56032301 3.53556409 -37.14356802 4.95533884 -41.1875 7.375 Z " fill="#252525" transform="translate(588.1875,78.625)"/>
<path d="M0 0 C3.96 0 7.92 0 12 0 C12.33 25.41 12.66 50.82 13 77 C15.97 73.04 18.94 69.08 22 65 C24.14130328 62.1838016 26.28504 59.37010129 28.4375 56.5625 C28.98535156 55.84731201 29.53320312 55.13212402 30.09765625 54.39526367 C31.2039667 52.95143206 32.31056748 51.50782285 33.41748047 50.06445312 C34.90623431 48.12232069 36.3928228 46.17855105 37.87890625 44.234375 C38.7525082 43.0936765 39.62620047 41.95304716 40.5 40.8125 C41.2528125 39.82894531 42.005625 38.84539062 42.78125 37.83203125 C43.5134375 36.89746094 44.245625 35.96289062 45 35 C45.36826904 34.44538086 45.73653809 33.89076172 46.1159668 33.31933594 C47.29296875 31.66015625 47.29296875 31.66015625 50 29 C52.92434552 28.54543852 54.94752861 28.41115525 57.8125 28.625 C58.50537109 28.65207031 59.19824219 28.67914063 59.91210938 28.70703125 C61.6094297 28.77726519 63.30513253 28.88487693 65 29 C61.51501566 34.64017202 57.59804723 39.85093481 53.4375 45 C52.93299316 45.6283374 52.42848633 46.2566748 51.90869141 46.90405273 C49.66550848 49.69708988 47.41983874 52.48741778 45.14990234 55.25878906 C43.29114663 57.53428675 41.45671203 59.82770813 39.625 62.125 C39.03517334 62.83527344 38.44534668 63.54554687 37.83764648 64.27734375 C36.36820486 66.14069995 35.07234095 67.88353761 34 70 C34.56500288 74.68246137 38.31617552 78.00322589 41.375 81.4375 C42.45852078 82.67691949 43.54184842 83.91650785 44.625 85.15625 C45.181875 85.78917969 45.73875 86.42210937 46.3125 87.07421875 C49.02709392 90.17212339 51.69948229 93.3058605 54.375 96.4375 C55.3201012 97.54054566 56.26540728 98.64341582 57.2109375 99.74609375 C57.66049805 100.27315918 58.11005859 100.80022461 58.57324219 101.34326172 C59.60031943 102.53589453 60.63886944 103.71868183 61.68457031 104.89501953 C62.50973145 105.83063721 62.50973145 105.83063721 63.3515625 106.78515625 C63.85768066 107.35242432 64.36379883 107.91969238 64.88525391 108.50415039 C66 110 66 110 66 112 C53.21180056 113.51638729 53.21180056 113.51638729 48.31640625 110.16015625 C46.00411076 107.55109556 43.99814503 104.85612715 42 102 C40.47095259 100.11469495 38.92925202 98.23958086 37.375 96.375 C36.64152344 95.46621094 35.90804687 94.55742187 35.15234375 93.62109375 C32.59966017 90.51247182 29.93277088 87.52304488 27.21484375 84.55859375 C26 83 26 83 26 81 C24.22605332 82.60763917 22.61871417 84.23868482 21 86 C20.31421875 86.74378906 19.6284375 87.48757812 18.921875 88.25390625 C12.45545098 96.05781005 11.78741988 102.15488321 12 112 C8.04 112 4.08 112 0 112 C0 75.04 0 38.08 0 0 Z " fill="#252525" transform="translate(447,44)"/>
<path d="M0 0 C6.23001811 3.67622556 12.48606691 9.54962354 14.99609375 16.54296875 C16.29566102 24.32697479 16.96947858 34.29984973 12.625 41.1484375 C12.00625 41.97214844 12.00625 41.97214844 11.375 42.8125 C10.75625 43.72902344 10.75625 43.72902344 10.125 44.6640625 C5.7653981 50.48512186 -0.13475329 53.76042076 -7.17578125 55.41015625 C-16.77035065 56.70833282 -24.8579941 54.21750422 -32.6875 48.625 C-38.62124373 43.43881453 -41.93237053 36.50271748 -42.87890625 28.7265625 C-43.33195126 20.39638008 -39.95626267 12.15237993 -34.625 5.8125 C-24.52141494 -2.08804772 -12.20109255 -5.83450741 0 0 Z " fill="#FAB403" transform="translate(204.625,165.1875)"/>
<path d="M0 0 C2.69141724 1.90381258 4.88026872 3.91359739 7.015625 6.42578125 C7.716875 7.16828125 8.418125 7.91078125 9.140625 8.67578125 C13.37929808 14.89250177 15.0897482 21.96794857 14.015625 29.42578125 C11.92884073 38.10829438 8.18421436 44.94241262 0.69140625 49.9921875 C-7.17420124 54.32629775 -15.01615522 55.48010919 -23.734375 53.23828125 C-27.75000246 51.78819356 -31.36444925 49.6679102 -34.984375 47.42578125 C-34.984375 46.76578125 -34.984375 46.10578125 -34.984375 45.42578125 C-35.974375 45.09578125 -36.964375 44.76578125 -37.984375 44.42578125 C-39.43308185 42.09907025 -40.74229183 39.85463214 -41.984375 37.42578125 C-42.34660156 36.85988281 -42.70882812 36.29398438 -43.08203125 35.7109375 C-45.5260862 29.52144769 -44.9660253 20.11890887 -43.26171875 13.70703125 C-41.29098327 9.55811445 -38.40479039 6.42907281 -34.984375 3.42578125 C-34.200625 2.72453125 -33.416875 2.02328125 -32.609375 1.30078125 C-22.91449668 -5.62413183 -10.35891274 -6.08843381 0 0 Z " fill="#2FB47C" transform="translate(65.984375,166.57421875)"/>
<path d="M0 0 C6.78353639 5.30885457 11.268438 11.29135564 12.34375 20.08203125 C12.41896431 29.66245413 11.61035516 36.82166603 5.11328125 44.26953125 C-1.01309947 50.17223073 -8.11277918 53.37781545 -16.625 53.75 C-25.15149052 53.37719153 -32.20057895 50.15607874 -38.3671875 44.2890625 C-44.11121218 37.62599387 -46.53808733 29.99994068 -46.125 21.25 C-44.71646948 12.19516096 -40.26514987 5.55357955 -33.1875 -0.125 C-22.64677363 -7.44384397 -10.65263871 -5.96547768 0 0 Z " fill="#FB4B48" transform="translate(208.125,26.75)"/>
<path d="M0 0 C7.08338216 4.68497381 11.22463268 10.94554223 13.609375 19.078125 C15.30982975 27.44436236 13.0715936 35.19299675 8.52734375 42.3046875 C3.62364874 48.44879709 -2.6438436 51.54794787 -10 54 C-19.73895592 54.98847972 -27.60869595 52.97745152 -35.3125 46.875 C-41.24583469 41.15829822 -44.13247171 35.40085458 -44.58984375 27.09521484 C-44.73703532 18.32300624 -43.07511595 11.67147438 -37.23828125 4.98046875 C-26.72012157 -5.15366076 -12.76299148 -7.14473111 0 0 Z " fill="#03DBFC" transform="translate(66,26)"/>
<path d="M0 0 C8.51420801 6.10310486 12.63530911 13.74156129 14.83813477 23.76733398 C15.52102395 28.96087671 15.43456321 34.10360971 15.41015625 39.3359375 C15.4087413 40.48164215 15.40732635 41.6273468 15.40586853 42.80776978 C15.4002858 46.45520678 15.38773641 50.10258165 15.375 53.75 C15.36998277 56.22786369 15.36542025 58.70572835 15.36132812 61.18359375 C15.35032201 67.24741965 15.3330692 73.3111993 15.3125 79.375 C11.3525 79.375 7.3925 79.375 3.3125 79.375 C3.29791748 77.88242676 3.28333496 76.38985352 3.26831055 74.85205078 C3.21004853 69.27938677 3.13281772 63.70711506 3.05004883 58.13476562 C3.01693036 55.72955728 2.98885833 53.32427366 2.96606445 50.91894531 C2.93227759 47.44824341 2.87994905 43.97822327 2.82421875 40.5078125 C2.81782883 39.44386261 2.8114389 38.37991272 2.80485535 37.28372192 C2.63820738 28.69374215 1.45784798 19.84735669 -4.0625 12.9140625 C-9.07874366 8.16310096 -14.84952167 6.07561802 -21.6875 5.75 C-28.78526403 6.10580051 -34.65409356 8.12132546 -39.5703125 13.39453125 C-45.68022735 21.8214911 -45.98999555 31.07670013 -46.1015625 41.19140625 C-46.12092865 42.28847397 -46.1402948 43.38554169 -46.1602478 44.51585388 C-46.21960791 47.98965901 -46.26625384 51.46349806 -46.3125 54.9375 C-46.3507199 57.30535229 -46.38977392 59.67319128 -46.4296875 62.04101562 C-46.52527339 67.81890122 -46.60946407 73.59685181 -46.6875 79.375 C-50.6475 79.375 -54.6075 79.375 -58.6875 79.375 C-58.6875 51.985 -58.6875 24.595 -58.6875 -3.625 C-54.7275 -3.625 -50.7675 -3.625 -46.6875 -3.625 C-46.3575 -0.985 -46.0275 1.655 -45.6875 4.375 C-44.759375 3.4675 -43.83125 2.56 -42.875 1.625 C-30.65507617 -8.70928428 -13.23187044 -8.03283872 0 0 Z " fill="#252525" transform="translate(815.6875,76.625)"/>
<path d="M0 0 C8.58 0 17.16 0 26 0 C26 27.72 26 55.44 26 84 C17.42 84 8.84 84 0 84 C0 56.28 0 28.56 0 0 Z " fill="#252525" transform="translate(1001,72)"/>
<path d="M0 0 C4.29 0 8.58 0 13 0 C13.721875 1.8975 14.44375 3.795 15.1875 5.75 C18.33870643 13.93426008 21.60925863 22.04855866 25.3125 30 C28.12101007 36.08658176 30.55094651 42.31895985 32.9699707 48.56835938 C35.31979868 54.55944237 38.03802339 60.28772492 41 66 C41.41773682 65.02353516 41.83547363 64.04707031 42.26586914 63.04101562 C43.85131694 59.33549528 45.43762837 55.63034513 47.02416992 51.92529297 C47.70408437 50.33717397 48.38378025 48.74896137 49.06323242 47.16064453 C52.89400586 38.20610529 56.74023987 29.25936418 60.6676178 20.34667969 C62.85005248 15.38377089 64.92568748 10.38183133 66.95703125 5.35546875 C68 3 68 3 70 0 C72.8203125 -0.29296875 72.8203125 -0.29296875 76.125 -0.1875 C77.76855469 -0.14689453 77.76855469 -0.14689453 79.4453125 -0.10546875 C80.70988281 -0.05326172 80.70988281 -0.05326172 82 0 C81.30984593 4.74714087 79.51514996 8.82136413 77.625 13.1875 C76.89834971 14.88928543 76.17179242 16.59111058 75.4453125 18.29296875 C75.0524707 19.20868652 74.65962891 20.1244043 74.25488281 21.06787109 C71.98528473 26.37095923 69.74530428 31.68659256 67.5 37 C66.55865425 39.22398394 65.6172487 41.44794258 64.67578125 43.671875 C62.33906787 49.19486458 60.01141164 54.72161432 57.6875 60.25 C54.49293429 67.84843329 51.25676878 75.42801258 48 83 C43.38 83 38.76 83 34 83 C33.31427896 81.39998425 32.62855854 79.79996824 31.94284058 78.19995117 C31.32861289 76.76676013 30.71437514 75.3335734 30.10012817 73.90039062 C28.39179583 69.91440642 26.6836475 65.92834353 24.97583008 61.94213867 C20.66946387 51.8904686 20.66946387 51.8904686 16.3515625 41.84375 C14.22385557 36.90028788 12.1074472 31.95213185 10 27 C9.55720703 25.96117676 9.11441406 24.92235352 8.65820312 23.85205078 C7.24503772 20.52897973 5.84020372 17.20249886 4.4375 13.875 C3.99494873 12.83577393 3.55239746 11.79654785 3.09643555 10.72583008 C2.69207275 9.76185303 2.28770996 8.79787598 1.87109375 7.8046875 C1.50943115 6.94858887 1.14776855 6.09249023 0.77514648 5.21044922 C0 3 0 3 0 0 Z " fill="#252525" transform="translate(355,73)"/>
<path d="M0 0 C0.33 9.9 0.66 19.8 1 30 C-9.08357523 30.06779634 -19.1669989 30.12282797 -29.25075054 30.15543652 C-33.93312236 30.17108754 -38.61533006 30.19231556 -43.29760742 30.22631836 C-47.81689376 30.25893186 -52.33602231 30.27685725 -56.85541725 30.28463173 C-58.57899268 30.29017166 -60.30255954 30.30098984 -62.02606773 30.31719017 C-64.4416401 30.33899113 -66.85656176 30.34196585 -69.2722168 30.34057617 C-69.98359802 30.351362 -70.69497925 30.36214783 -71.42791748 30.3732605 C-75.75696427 30.34634016 -78.62302574 29.78232803 -82 27 C-82.3125 23.8125 -82.3125 23.8125 -82 21 C-82.66 21 -83.32 21 -84 21 C-84.22162329 19.37675914 -84.42689803 17.751279 -84.625 16.125 C-84.74101563 15.22007813 -84.85703125 14.31515625 -84.9765625 13.3828125 C-84.98429687 12.59648438 -84.99203125 11.81015625 -85 11 C-83 9 -83 9 -80.60710144 8.78640747 C-79.60262466 8.80291351 -78.59814789 8.81941956 -77.56323242 8.83642578 C-76.42411911 8.84948761 -75.2850058 8.86254944 -74.1113739 8.87600708 C-72.8719252 8.89887787 -71.6324765 8.92174866 -70.35546875 8.9453125 C-68.40505842 8.96414024 -66.45464749 8.98294261 -64.50422382 9.00033379 C-59.69534234 9.04608359 -54.88680462 9.11249917 -50.07836914 9.19189453 C-47.38682417 9.23552106 -44.69555501 9.26784478 -42.0037384 9.28878784 C-39.47463997 9.30924024 -36.94560079 9.34596419 -34.41703796 9.40188599 C-22.79535381 9.46879217 -13.02599136 6.41391795 -2.828125 0.953125 C-1 0 -1 0 0 0 Z " fill="#02DBFE" transform="translate(113,85)"/>
<path d="M0 0 C0.99 0.33 1.98 0.66 3 1 C3 23.11 3 45.22 3 68 C25.11 68 47.22 68 70 68 C68.69591201 73.86839597 67.45939469 78.94733399 65.4375 84.5 C65.00308594 85.7065625 64.56867188 86.913125 64.12109375 88.15625 C63 91 63 91 62 92 C59.41899244 92.10039611 56.86472103 92.13617269 54.28320312 92.12939453 C53.07107399 92.13202301 53.07107399 92.13202301 51.8344574 92.13470459 C49.1500334 92.13912376 46.46567472 92.13618489 43.78125 92.1328125 C41.92419421 92.13348552 40.0671385 92.13445553 38.21008301 92.13571167 C34.31273563 92.13718873 30.41541113 92.13503382 26.51806641 92.13037109 C21.510655 92.1246738 16.50329719 92.12795276 11.49588776 92.13394356 C7.65960279 92.13754895 3.82333063 92.13641069 -0.01295471 92.13381577 C-1.85982774 92.13314644 -3.70670192 92.13397513 -5.55357361 92.13629532 C-8.13014832 92.13882149 -10.70663501 92.13498177 -13.28320312 92.12939453 C-14.0541481 92.13141876 -14.82509308 92.13344299 -15.61940002 92.13552856 C-20.88573745 92.11426255 -20.88573745 92.11426255 -22 91 C-22.12163688 88.46048349 -22.17859963 85.94766541 -22.19287109 83.40673828 C-22.20104858 82.61161835 -22.20922607 81.81649841 -22.21765137 80.99728394 C-22.24255008 78.35496791 -22.25903173 75.71270572 -22.2734375 73.0703125 C-22.27876118 72.17030392 -22.28408485 71.27029533 -22.28956985 70.34301376 C-22.31631952 65.58040975 -22.33568952 60.81783214 -22.35009766 56.05517578 C-22.36676009 51.12614381 -22.41154565 46.1977786 -22.4624691 41.2689991 C-22.49606074 37.48753049 -22.50766613 33.70622176 -22.51332474 29.92461777 C-22.52005852 28.1072568 -22.53533546 26.28990713 -22.55921555 24.47269058 C-22.59070149 21.93191825 -22.5909297 19.39296552 -22.58349609 16.85205078 C-22.59990143 16.09764709 -22.61630676 15.34324341 -22.63320923 14.565979 C-22.60800171 12.46707153 -22.60800171 12.46707153 -22 9 C-18.87023837 6.41765838 -15.98478958 5.56925565 -12 5 C-12 5.66 -12 6.32 -12 7 C-13.134375 7.28875 -14.26875 7.5775 -15.4375 7.875 C-16.613125 8.24625 -17.78875 8.6175 -19 9 C-20.51121024 12.02242048 -20.17922091 15.16152831 -20.20532227 18.47900391 C-20.21522186 19.24982803 -20.22512146 20.02065216 -20.23532104 20.81483459 C-20.2669683 23.3687124 -20.29170617 25.92260882 -20.31640625 28.4765625 C-20.336973 30.24490855 -20.35796939 32.01324965 -20.37937927 33.78158569 C-20.43462881 38.44059243 -20.48402536 43.09964375 -20.53222656 47.75872803 C-20.59124238 53.34631233 -20.65748619 58.93381499 -20.72252655 64.52133179 C-20.82057233 73.01417142 -20.90940353 81.50706291 -21 90 C-9.45 90 2.1 90 14 90 C13.01 89.34 12.02 88.68 11 88 C11 87.34 11 86.68 11 86 C10.38640625 85.91492188 9.7728125 85.82984375 9.140625 85.7421875 C7 85 7 85 5.734375 83.2578125 C5.24710938 82.20207031 5.24710938 82.20207031 4.75 81.125 C4.24726563 80.07699219 4.24726563 80.07699219 3.734375 79.0078125 C3 77 3 77 3 74 C2.34 74 1.68 74 1 74 C0.80751303 49.98650977 1.36810328 26.00367266 2 2 C-0.31 2.33 -2.62 2.66 -5 3 C-2 1 -2 1 0 0 Z " fill="#F6504C" transform="translate(148,24)"/>
<path d="M0 0 C3.96 0 7.92 0 12 0 C12 36.96 12 73.92 12 112 C8.04 112 4.08 112 0 112 C0 75.04 0 38.08 0 0 Z " fill="#252525" transform="translate(625,44)"/>
<path d="M0 0 C0 20.13 0 40.26 0 61 C-2.64 60.67 -5.28 60.34 -8 60 C-8.90015658 55.20420779 -9.29415054 50.48538552 -9.5625 45.625 C-9.706875 43.10875 -9.85125 40.5925 -10 38 C-10.33 43.61 -10.66 49.22 -11 55 C-17.93359375 55.09765625 -17.93359375 55.09765625 -20 55 C-21 54 -21 54 -21.11352539 50.30639648 C-21.11336624 48.66128708 -21.10766988 47.01617269 -21.09765625 45.37109375 C-21.0962413 44.50686295 -21.09482635 43.64263214 -21.09336853 42.75221252 C-21.08775239 39.98060708 -21.07519719 37.2090812 -21.0625 34.4375 C-21.05748708 32.5631522 -21.05292381 30.68880315 -21.04882812 28.81445312 C-21.03777772 24.20960456 -21.0205023 19.60481579 -21 15 C-20.34 15 -19.68 15 -19 15 C-19.0825 14.113125 -19.165 13.22625 -19.25 12.3125 C-18.93315138 8.11425578 -18.03911403 6.88715832 -15 4 C-9.60574931 0.40773327 -6.83256493 0 0 0 Z " fill="#F7B404" transform="translate(149,155)"/>
<path d="M0 0 C1.1653125 -0.00128906 2.330625 -0.00257813 3.53125 -0.00390625 C4.7584375 -0.00003906 5.985625 0.00382813 7.25 0.0078125 C9.09078125 0.00201172 9.09078125 0.00201172 10.96875 -0.00390625 C12.71671875 -0.00197266 12.71671875 -0.00197266 14.5 0 C15.57765625 0.00112793 16.6553125 0.00225586 17.765625 0.00341797 C20.25 0.1328125 20.25 0.1328125 21.25 1.1328125 C21.33748207 3.05948757 21.35697334 4.98933111 21.34765625 6.91796875 C21.34515869 7.97121338 21.34266113 9.02445801 21.34008789 10.10961914 C21.33098389 11.45789795 21.32187988 12.80617676 21.3125 14.1953125 C21.291875 18.4646875 21.27125 22.7340625 21.25 27.1328125 C12.01 27.1328125 2.77 27.1328125 -6.75 27.1328125 C-6.770625 22.8634375 -6.79125 18.5940625 -6.8125 14.1953125 C-6.821604 12.84703369 -6.83070801 11.49875488 -6.84008789 10.10961914 C-6.84258545 9.05637451 -6.84508301 8.00312988 -6.84765625 6.91796875 C-6.85289307 5.83394775 -6.85812988 4.74992676 -6.86352539 3.63305664 C-6.65071868 -1.05372514 -4.1043792 0.00429585 0 0 Z " fill="#252525" transform="translate(855.75,128.8671875)"/>
<path d="M0 0 C0.66 0 1.32 0 2 0 C2 11.88 2 23.76 2 36 C3.98 33.03 5.96 30.06 8 27 C10.59765625 25.28125 10.59765625 25.28125 13.0625 24.5 C13.87847656 24.2215625 14.69445312 23.943125 15.53515625 23.65625 C20.35762468 22.37229644 24.7133764 21.87704967 29.71801758 21.88647461 C30.37223694 21.88632858 31.0264563 21.88618256 31.70050049 21.8860321 C33.84854526 21.88672506 35.99650175 21.89448836 38.14453125 21.90234375 C39.63954114 21.90421012 41.13455165 21.90563299 42.62956238 21.90663147 C46.55371811 21.91043936 50.4778365 21.92025482 54.40197754 21.93133545 C58.41055801 21.94158679 62.41914455 21.94613706 66.42773438 21.95117188 C74.28517334 21.9618787 82.14258202 21.97893428 90 22 C89.57847656 20.81921875 89.15695313 19.6384375 88.72265625 18.421875 C88.16917333 16.86461798 87.6157933 15.3073244 87.0625 13.75 C86.78470703 12.97269531 86.50691406 12.19539062 86.22070312 11.39453125 C85.95322266 10.64042969 85.68574219 9.88632813 85.41015625 9.109375 C85.16402588 8.41811523 84.91789551 7.72685547 84.66430664 7.01464844 C84.00858753 5.02604347 83.48132614 3.03714797 83 1 C83.66 0.67 84.32 0.34 85 0 C86.17692357 3.24637731 87.33972274 6.4976398 88.5 9.75 C88.83386719 10.67039063 89.16773438 11.59078125 89.51171875 12.5390625 C89.82753906 13.42851562 90.14335937 14.31796875 90.46875 15.234375 C90.76201172 16.05131836 91.05527344 16.86826172 91.35742188 17.70996094 C92 20 92 20 92 24 C69.89 24 47.78 24 25 24 C25 46.11 25 68.22 25 91 C18.60911639 89.72182328 13.38980818 88.62632902 7.4375 86.4375 C6.23996094 86.00308594 5.04242188 85.56867188 3.80859375 85.12109375 C1 84 1 84 0 83 C-0.09507821 80.41360962 -0.12556376 77.8540144 -0.11352539 75.26733398 C-0.11367142 74.4576416 -0.11381744 73.64794922 -0.1139679 72.8137207 C-0.11326854 70.12448492 -0.1054751 67.43531751 -0.09765625 64.74609375 C-0.09579215 62.88664284 -0.09436821 61.02719144 -0.09336853 59.16773987 C-0.08954271 54.26370904 -0.07971188 49.35970764 -0.06866455 44.45568848 C-0.05845181 39.45548908 -0.05387121 34.45528494 -0.04882812 29.45507812 C-0.03808967 19.63670579 -0.02101248 9.81835534 0 0 Z M5.5 34.375 C3.72134084 37.48765353 3.67164874 39.470224 4 43 C3.34 43 2.68 43 2 43 C1.97535225 48.53588533 1.95716504 54.071739 1.94506836 59.60766602 C1.94002756 61.4924373 1.93319502 63.37720465 1.92456055 65.26196289 C1.91248383 67.96501636 1.90676932 70.66801831 1.90234375 73.37109375 C1.89718246 74.21900986 1.89202118 75.06692596 1.88670349 75.9405365 C1.88650805 77.96071068 1.93793789 79.98077934 2 82 C3.00836062 83.23267348 3.00836062 83.23267348 5.06640625 83.09765625 C7.37760417 83.06510417 9.68880208 83.03255208 12 83 C12.33 77.39 12.66 71.78 13 66 C13.4375 73.625 13.4375 73.625 13.56811523 75.99072266 C13.8120302 80.05322186 14.24776741 83.99230702 15 88 C17.64 88.33 20.28 88.66 23 89 C23 68.87 23 48.74 23 28 C15.13833445 28 11.13030884 29.02620661 5.5 34.375 Z " fill="#E4B332" transform="translate(126,127)"/>
<path d="M0 0 C8.58 0 17.16 0 26 0 C26 6.93 26 13.86 26 21 C17.42 21 8.84 21 0 21 C0 14.07 0 7.14 0 0 Z " fill="#262626" transform="translate(1001,44)"/>
<path d="M0 0 C3.6281781 1.11492282 7.2519203 2.24362939 10.875 3.375 C11.90753906 3.69210938 12.94007812 4.00921875 14.00390625 4.3359375 C14.99003906 4.6453125 15.97617188 4.9546875 16.9921875 5.2734375 C18.35899658 5.69761963 18.35899658 5.69761963 19.75341797 6.13037109 C22 7 22 7 24 9 C24.19315817 11.61474623 24.26230952 14.12311913 24.24291992 16.73852539 C24.24481827 17.53700394 24.24671661 18.33548248 24.24867249 19.15815735 C24.25238561 21.80475598 24.24166936 24.4510819 24.23046875 27.09765625 C24.22927724 28.9308621 24.22882373 30.76406856 24.2290802 32.59727478 C24.22751446 36.44159764 24.21921725 40.28582749 24.20581055 44.13012695 C24.18880862 49.06913537 24.18499649 54.00804159 24.18575573 58.94707584 C24.18548442 62.73275232 24.18000976 66.51840625 24.17275429 70.30407524 C24.16956212 72.12582669 24.16759894 73.9475807 24.16686058 75.76933479 C24.16470347 78.30989097 24.15597333 80.85033654 24.14526367 83.39086914 C24.14571686 84.15089233 24.14617004 84.91091553 24.14663696 85.69396973 C24.11447477 90.88552523 24.11447477 90.88552523 23 92 C20.41360962 92.09507821 17.8540144 92.12556376 15.26733398 92.11352539 C14.05279541 92.11374443 14.05279541 92.11374443 12.8137207 92.1139679 C10.12448492 92.11326854 7.43531751 92.1054751 4.74609375 92.09765625 C2.88664284 92.09579215 1.02719144 92.09436821 -0.83226013 92.09336853 C-5.73629096 92.08954271 -10.64029236 92.07971188 -15.54431152 92.06866455 C-20.54451092 92.05845181 -25.54471506 92.05387121 -30.54492188 92.04882812 C-40.36329421 92.03808967 -50.18164466 92.02101248 -60 92 C-60.33 90.68 -60.66 89.36 -61 88 C-60.33438553 88.32531708 -59.66877106 88.65063416 -58.98298645 88.98580933 C-55.35878351 90.21800829 -52.050525 90.26519857 -48.2722168 90.22705078 C-47.11158706 90.22741239 -47.11158706 90.22741239 -45.92751026 90.2277813 C-43.43462752 90.22629414 -40.94204766 90.21108903 -38.44921875 90.1953125 C-36.90547835 90.19237021 -35.36173596 90.19033091 -33.81799316 90.18920898 C-28.10779826 90.17874324 -22.39764612 90.15082071 -16.6875 90.125 C-3.920625 90.08375 8.84625 90.0425 22 90 C22 63.27 22 36.54 22 9 C19.36 8.67 16.72 8.34 14 8 C14 7.34 14 6.68 14 6 C12.7315625 6.0928125 12.7315625 6.0928125 11.4375 6.1875 C8 6 8 6 1 3 C1 23.13 1 43.26 1 64 C0.01 64.495 0.01 64.495 -1 65 C-1.02312684 56.67271053 -1.04091683 48.34543437 -1.05181217 40.01812077 C-1.05704026 36.15179882 -1.06413654 32.28549879 -1.07543945 28.41918945 C-1.086271 24.69096599 -1.0922774 20.96276366 -1.09487724 17.23452568 C-1.09673101 15.80910344 -1.10035071 14.38368241 -1.10573006 12.95826912 C-1.11294393 10.96836592 -1.11340808 8.97844166 -1.11352539 6.98852539 C-1.115746 5.85379288 -1.11796661 4.71906036 -1.12025452 3.54994202 C-1 1 -1 1 0 0 Z " fill="#43DAF9" transform="translate(92,24)"/>
<path d="M0 0 C0.99 0.33 1.98 0.66 3 1 C3 23.11 3 45.22 3 68 C25.11 68 47.22 68 70 68 C69.34 70.97 68.68 73.94 68 77 C67.67 77 67.34 77 67 77 C67.33 74.69 67.66 72.38 68 70 C35.33 69.505 35.33 69.505 2 69 C2 70.65 2 72.3 2 74 C1.67 74 1.34 74 1 74 C0.80751303 49.98650977 1.36810328 26.00367266 2 2 C-0.31 2.33 -2.62 2.66 -5 3 C-2 1 -2 1 0 0 Z " fill="#CC6363" transform="translate(148,24)"/>
<path d="M0 0 C22.77 0 45.54 0 69 0 C64.76641233 3.17519075 64.08824348 3.37236054 59.12988281 3.34057617 C57.94896057 3.34034958 56.76803833 3.34012299 55.55133057 3.33988953 C54.28142273 3.32440567 53.01151489 3.30892181 51.703125 3.29296875 C50.39921814 3.28872391 49.09531128 3.28447906 47.75189209 3.28010559 C44.29281228 3.26867549 40.83411302 3.23922477 37.37518311 3.20599365 C33.84262235 3.1752528 30.30999984 3.16159172 26.77734375 3.14648438 C19.85140661 3.11435282 12.9257216 3.06317904 6 3 C5.08307039 5.75078884 4.89113917 7.35948913 4.9375 10.1875 C4.958125 11.445625 4.97875 12.70375 5 14 C5.66 14 6.32 14 7 14 C7 15.65 7 17.3 7 19 C4.3458221 15.84388587 3.07732936 12.84829424 1.8125 8.9375 C1.46832031 7.89464844 1.12414062 6.85179688 0.76953125 5.77734375 C0 3 0 3 0 0 Z " fill="#23D1EE" transform="translate(24,92)"/>
<path d="M0 0 C0.33 0 0.66 0 1 0 C1.02312328 10.67419698 1.04091501 21.34838806 1.05181217 32.02260494 C1.05704103 36.97853922 1.06413874 41.93445642 1.07543945 46.89038086 C1.08626822 51.66898836 1.09227681 56.44757938 1.09487724 61.2261982 C1.09673151 63.05353619 1.10035216 64.88087324 1.10573006 66.70820427 C1.11294036 69.25853329 1.11399095 71.80879337 1.11352539 74.35913086 C1.11712067 75.12229614 1.12071594 75.88546143 1.12442017 76.67175293 C1.11405216 81.88594784 1.11405216 81.88594784 0 83 C-2.58639038 83.09507821 -5.1459856 83.12556376 -7.73266602 83.11352539 C-8.94720459 83.11374443 -8.94720459 83.11374443 -10.1862793 83.1139679 C-12.87551508 83.11326854 -15.56468249 83.1054751 -18.25390625 83.09765625 C-20.11335716 83.09579215 -21.97280856 83.09436821 -23.83226013 83.09336853 C-28.73629096 83.08954271 -33.64029236 83.07971188 -38.54431152 83.06866455 C-43.54451092 83.05845181 -48.54471506 83.05387121 -53.54492188 83.04882812 C-63.36329421 83.03808967 -73.18164466 83.02101248 -83 83 C-83.33 81.68 -83.66 80.36 -84 79 C-83.33438553 79.32531708 -82.66877106 79.65063416 -81.98298645 79.98580933 C-78.35878351 81.21800829 -75.050525 81.26519857 -71.2722168 81.22705078 C-70.11158706 81.22741239 -70.11158706 81.22741239 -68.92751026 81.2277813 C-66.43462752 81.22629414 -63.94204766 81.21108903 -61.44921875 81.1953125 C-59.90547835 81.19237021 -58.36173596 81.19033091 -56.81799316 81.18920898 C-51.10779826 81.17874324 -45.39764612 81.15082071 -39.6875 81.125 C-26.920625 81.08375 -14.15375 81.0425 -1 81 C-0.67 54.27 -0.34 27.54 0 0 Z " fill="#44C0DB" transform="translate(115,33)"/>
<path d="M0 0 C2.43237153 3.6485573 3.68031191 7.32117579 5.125 11.4375 C5.40214844 12.20126953 5.67929688 12.96503906 5.96484375 13.75195312 C6.22652344 14.49251953 6.48820312 15.23308594 6.7578125 15.99609375 C6.9964502 16.66825928 7.23508789 17.3404248 7.48095703 18.03295898 C8 20 8 20 8 24 C-0.70115581 24.0462833 -9.40226942 24.08184872 -18.10352135 24.10362434 C-22.14360264 24.11407407 -26.18359989 24.1282548 -30.22363281 24.15087891 C-34.12044733 24.17256512 -38.01718087 24.18455967 -41.91405106 24.18975449 C-43.40285136 24.19345786 -44.8916471 24.20068938 -46.38041306 24.21146011 C-48.46122667 24.22591919 -50.54170306 24.22798033 -52.62255859 24.22705078 C-53.80836517 24.231492 -54.99417175 24.23593323 -56.21591187 24.24050903 C-59 24 -59 24 -61 22 C-38.89 22 -16.78 22 6 22 C4.02 16.39 2.04 10.78 0 5 C-0.495 3.02 -0.495 3.02 -1 1 C-0.67 0.67 -0.34 0.34 0 0 Z " fill="#EFBE3D" transform="translate(210,127)"/>
<path d="M0 0 C0.33 0 0.66 0 1 0 C1 26.07 1 52.14 1 79 C0.01 79.495 0.01 79.495 -1 80 C-2.93759647 5.87519294 -2.93759647 5.87519294 0 0 Z " fill="#3DA670" transform="translate(115,131)"/>
<path d="M0 0 C0.33 0 0.66 0 1 0 C2.0299477 4.22663394 2.13566997 8.31193156 2.11352539 12.63598633 C2.11367142 13.38774139 2.11381744 14.13949646 2.1139679 14.91403198 C2.11327395 17.38672826 2.1055059 19.85934821 2.09765625 22.33203125 C2.09579023 24.05124368 2.09436719 25.77045665 2.09336853 27.4896698 C2.08955786 32.00566079 2.07973997 36.52161942 2.06866455 41.03759766 C2.05841924 45.64940961 2.05386423 50.26122681 2.04882812 54.87304688 C2.03811638 63.91537877 2.0210574 72.95768669 2 82 C1.01 81.67 0.02 81.34 -1 81 C-0.67 54.27 -0.34 27.54 0 0 Z " fill="#1D1D1D" transform="translate(1025,74)"/>
<path d="M0 0 C2.56912029 0.98730656 3.75972051 1.53557919 5.046875 4.0234375 C5.27890625 4.79945313 5.5109375 5.57546875 5.75 6.375 C5.99234375 7.14585937 6.2346875 7.91671875 6.484375 8.7109375 C7 11 7 11 7 15 C7.99 15.33 8.98 15.66 10 16 C-12.11 16 -34.22 16 -57 16 C-56.67 15.01 -56.34 14.02 -56 13 C-56 13.66 -56 14.32 -56 15 C-54.93909904 14.75601219 -54.93909904 14.75601219 -53.85676575 14.50709534 C-50.93245048 13.9880095 -48.25981288 13.87977469 -45.29174805 13.88647461 C-43.61057137 13.88658791 -43.61057137 13.88658791 -41.89543152 13.88670349 C-40.6963063 13.89186478 -39.49718109 13.89702606 -38.26171875 13.90234375 C-37.02581497 13.9037587 -35.78991119 13.90517365 -34.51655579 13.90663147 C-31.24341655 13.91127382 -27.97032713 13.92024689 -24.69720459 13.93133545 C-21.35217752 13.94159596 -18.00714827 13.94605369 -14.66210938 13.95117188 C-8.1080535 13.96219093 -1.55403082 13.97892164 5 14 C4.505 10.04 4.505 10.04 4 6 C3.34 6 2.68 6 2 6 C1.34 4.02 0.68 2.04 0 0 Z " fill="#3EA780" transform="translate(81,135)"/>
<path d="M0 0 C27.39 0 54.78 0 83 0 C83 0.33 83 0.66 83 1 C74.15089193 2.10137478 65.39042388 2.12887045 56.4921875 2.09765625 C54.91464279 2.09578744 53.3370975 2.09436573 51.759552 2.09336853 C47.63983513 2.08957978 43.52015441 2.07978129 39.40045166 2.06866455 C35.18363941 2.05837144 30.96682123 2.0538541 26.75 2.04882812 C18.49998354 2.03815517 10.24999629 2.02112338 2 2 C1.896875 2.78375 1.79375 3.5675 1.6875 4.375 C1 7 1 7 -2 9 C-1.34 6.03 -0.68 3.06 0 0 Z " fill="#41A584" transform="translate(31,127)"/>
<path d="M0 0 C-0.28241641 1.46015291 -0.57626614 2.91809793 -0.875 4.375 C-1.03742188 5.18710938 -1.19984375 5.99921875 -1.3671875 6.8359375 C-2 9 -2 9 -4 11 C-3.67 8.69 -3.34 6.38 -3 4 C-4.00740234 4.01740234 -4.00740234 4.01740234 -5.03515625 4.03515625 C-16.37252761 4.13755831 -27.67866146 3.54553675 -39 3 C-39 2.34 -39 1.68 -39 1 C-25.99069108 -0.05736038 -13.04584256 -0.11145896 0 0 Z " fill="#DB5B58" transform="translate(215,101)"/>
<path d="M0 0 C0.33 0 0.66 0 1 0 C2.33494047 13.27114442 2.11236703 26.55391678 2.0625 39.875 C2.05747466 42.22005113 2.05291358 44.5651033 2.04882812 46.91015625 C2.03790517 52.60679697 2.02069759 58.30338675 2 64 C-1.3 63.34 -4.6 62.68 -8 62 C-8 61.67 -8 61.34 -8 61 C-5.36 61.33 -2.72 61.66 0 62 C0 41.54 0 21.08 0 0 Z " fill="#E2BF3A" transform="translate(149,154)"/>
<path d="M0 0 C0 5.94 0 11.88 0 18 C-0.33 18 -0.66 18 -1 18 C-1.495 11.565 -1.495 11.565 -2 5 C-8.74357517 6.01615516 -14.11756813 7.0010114 -19 12 C-20.59296269 14.27836207 -21.76983 16.4904532 -23 19 C-23.33 19 -23.66 19 -24 19 C-24.45208786 13.50614976 -22.37020277 10.62885842 -19.1953125 6.31640625 C-13.6749163 0.49150421 -7.75431509 0 0 0 Z " fill="#BF8C18" transform="translate(151,150)"/>
<path d="M0 0 C0.72265625 1.71484375 0.72265625 1.71484375 1 4 C-2.38580073 9.29432798 -6.99307145 13.95508815 -13 16 C-19.42857143 17.28571429 -19.42857143 17.28571429 -22 16 C-21.67 14.68 -21.34 13.36 -21 12 C-19.82244141 11.77957031 -19.82244141 11.77957031 -18.62109375 11.5546875 C-10.09885659 9.73521601 -4.87355817 7.31033725 0 0 Z " fill="#06A3D1" transform="translate(113,76)"/>
<path d="M0 0 C4.97874064 0.47416578 8.06718758 1.9099331 12 5 C12 5.66 12 6.32 12 7 C12.99 7.33 13.98 7.66 15 8 C17.17593243 12.33395595 18.46995434 17.14380516 18 22 C16.68 22 15.36 22 14 22 C13.75765625 21.11957031 13.5153125 20.23914063 13.265625 19.33203125 C12.93046875 18.17058594 12.5953125 17.00914062 12.25 15.8125 C11.76273438 14.08966797 11.76273438 14.08966797 11.265625 12.33203125 C9.40902011 7.44411776 7.31589622 4.7338652 2.75 2.1875 C1.8425 1.795625 0.935 1.40375 0 1 C0 0.67 0 0.34 0 0 Z " fill="#1C896E" transform="translate(74,128)"/>
<path d="M0 0 C1.32 0 2.64 0 4 0 C4.18175781 0.92683594 4.36351562 1.85367188 4.55078125 2.80859375 C4.92783203 4.60490234 4.92783203 4.60490234 5.3125 6.4375 C5.55613281 7.63246094 5.79976562 8.82742187 6.05078125 10.05859375 C6.36402344 11.02925781 6.67726562 11.99992187 7 13 C7.99 13.33 8.98 13.66 10 14 C10.639375 14.804375 11.27875 15.60875 11.9375 16.4375 C13.91391935 18.89305131 15.12464744 19.87039721 18 21 C16.3125 21.6875 16.3125 21.6875 14 22 C11.25 20.6875 11.25 20.6875 9 19 C9 18.34 9 17.68 9 17 C8.38511719 16.90847656 7.77023438 16.81695312 7.13671875 16.72265625 C5 16 5 16 3.76953125 14.43359375 C1.42506072 9.54369808 0.38684659 5.41585229 0 0 Z " fill="#BE3547" transform="translate(150,93)"/>
<path d="M0 0 C-0.66 0 -1.32 0 -2 0 C-2 0.66 -2 1.32 -2 2 C-5 4 -5 4 -8.4375 4.625 C-12.38515832 6.1486576 -12.56657657 6.4540157 -14.1875 10.0625 C-14.44917969 10.77535156 -14.71085937 11.48820312 -14.98046875 12.22265625 C-15.48513672 13.10244141 -15.48513672 13.10244141 -16 14 C-17.32 14.33 -18.64 14.66 -20 15 C-20.66 21.27 -21.32 27.54 -22 34 C-22.33 34 -22.66 34 -23 34 C-23.55781394 24.70310097 -23.8405196 16.7545212 -18 9 C-13.66744924 4.31159291 -6.83716017 -2.89264469 0 0 Z " fill="#30D3E9" transform="translate(45,24)"/>
<path d="M0 0 C0.33 0 0.66 0 1 0 C1 12.21 1 24.42 1 37 C-1.67848546 34.32151454 -1.30504006 32.86029139 -1.4140625 29.1171875 C-1.45273438 27.95058594 -1.49140625 26.78398438 -1.53125 25.58203125 C-1.5621875 24.35871094 -1.593125 23.13539062 -1.625 21.875 C-1.66367188 20.64394531 -1.70234375 19.41289063 -1.7421875 18.14453125 C-1.8366999 15.09650624 -1.92225494 12.04849138 -2 9 C-3.32 9.33 -4.64 9.66 -6 10 C-5.65066406 9.52949219 -5.30132812 9.05898437 -4.94140625 8.57421875 C-4.48636719 7.95160156 -4.03132813 7.32898438 -3.5625 6.6875 C-2.88380859 5.76517578 -2.88380859 5.76517578 -2.19140625 4.82421875 C-0.82663692 2.90322899 -0.82663692 2.90322899 0 0 Z " fill="#1AD8FD" transform="translate(114,77)"/>
<path d="M0 0 C-0.99 0.495 -0.99 0.495 -2 1 C-2.01981934 2.0194873 -2.03963867 3.03897461 -2.06005859 4.08935547 C-2.13602808 7.86532648 -2.22475809 11.64090773 -2.31738281 15.41650391 C-2.35570852 17.0518424 -2.39055507 18.68726624 -2.421875 20.32275391 C-2.46744842 22.6712091 -2.52545367 25.01907495 -2.5859375 27.3671875 C-2.59748871 28.10057343 -2.60903992 28.83395935 -2.62094116 29.58956909 C-2.77225659 34.77225659 -2.77225659 34.77225659 -5 37 C-5.02468646 32.33691801 -5.04285349 27.67387392 -5.05493164 23.01074219 C-5.05996588 21.42382139 -5.06679369 19.83690523 -5.07543945 18.25 C-5.08754482 15.97134251 -5.09323733 13.69274624 -5.09765625 11.4140625 C-5.10281754 10.70255035 -5.10797882 9.99103821 -5.11329651 9.25796509 C-5.11387171 4.22774341 -5.11387171 4.22774341 -4 2 C-4.99 2.33 -5.98 2.66 -7 3 C-7 2.34 -7 1.68 -7 1 C-3.375 -1.125 -3.375 -1.125 0 0 Z " fill="#EE5651" transform="translate(143,28)"/>
<path d="M0 0 C0.99 0.33 1.98 0.66 3 1 C3 9.25 3 17.5 3 26 C1.68 26.33 0.36 26.66 -1 27 C-1.02886537 22.68751391 -1.04675255 18.37505238 -1.0625 14.0625 C-1.07087891 12.83080078 -1.07925781 11.59910156 -1.08789062 10.33007812 C-1.09111328 9.16025391 -1.09433594 7.99042969 -1.09765625 6.78515625 C-1.10289307 5.70113525 -1.10812988 4.61711426 -1.11352539 3.50024414 C-1 1 -1 1 0 0 Z " fill="#161616" transform="translate(850,129)"/>
<path d="M0 0 C0.66 0 1.32 0 2 0 C2 0.66 2 1.32 2 2 C2.66 2 3.32 2 4 2 C4.33 2.66 4.66 3.32 5 4 C8.02934491 4.65772428 8.02934491 4.65772428 11 5 C5.54670928 8.63552714 0.37776165 8.62201837 -6 8 C-9.51013621 7.00585404 -12.81741048 5.79429944 -16 4 C-16.33 3.34 -16.66 2.68 -17 2 C-14.525 2.495 -14.525 2.495 -12 3 C-11.67 2.34 -11.34 1.68 -11 1 C-10.2265625 1.99 -10.2265625 1.99 -9.4375 3 C-6.20004245 5.65637543 -4.07447719 5.31342132 0 5 C0 3.35 0 1.7 0 0 Z " fill="#ED5853" transform="translate(192,72)"/>
<path d="M0 0 C5.80239614 -0.04934656 11.60467081 -0.08569402 17.40722656 -0.10986328 C19.38218309 -0.11993627 21.35712466 -0.13359521 23.33203125 -0.15087891 C26.16670418 -0.17507039 29.00118038 -0.18646991 31.8359375 -0.1953125 C32.72243988 -0.20563507 33.60894226 -0.21595764 34.52230835 -0.22659302 C36.68285952 -0.2269907 38.84293718 -0.12272534 41 0 C41.66 0.66 42.32 1.32 43 2 C29.47 2 15.94 2 2 2 C1.67 3.65 1.34 5.3 1 7 C0.01 7.66 -0.98 8.32 -2 9 C-1.34 6.03 -0.68 3.06 0 0 Z " fill="#32AF89" transform="translate(31,127)"/>
<path d="M0 0 C6.69795519 -0.72803861 11.34572451 1.48647737 17 5 C20.09713623 7.70175714 22.74432751 10.55713146 25 14 C25 14.66 25 15.32 25 16 C23.68 15.67 22.36 15.34 21 15 C21 13.68 21 12.36 21 11 C19.68 10.67 18.36 10.34 17 10 C16.67 8.68 16.34 7.36 16 6 C14.68 6 13.36 6 12 6 C12 5.34 12 4.68 12 4 C11.42765625 3.85691406 10.8553125 3.71382812 10.265625 3.56640625 C5.1328125 2.28320312 5.1328125 2.28320312 0 1 C0 0.67 0 0.34 0 0 Z " fill="#ECB734" transform="translate(192,163)"/>
<path d="M0 0 C14.52 0 29.04 0 44 0 C43.34 2.97 42.68 5.94 42 9 C41.67 9 41.34 9 41 9 C41.33 6.69 41.66 4.38 42 2 C28.14 1.67 14.28 1.34 0 1 C0 0.67 0 0.34 0 0 Z " fill="#E16560" transform="translate(174,92)"/>
<path d="M0 0 C0.66 0.33 1.32 0.66 2 1 C1.2884375 1.495 1.2884375 1.495 0.5625 2 C-1.85791615 5.09813267 -1.68198917 8.12026792 -2 12 C-4.475 11.01 -4.475 11.01 -7 10 C-7.66 13.63 -8.32 17.26 -9 21 C-9.66 21 -10.32 21 -11 21 C-10.69775048 12.68813825 -7.20400111 7.45694857 -1.625 1.4375 C-1.08875 0.963125 -0.5525 0.48875 0 0 Z " fill="#E65958" transform="translate(174,27)"/>
<path d="M0 0 C0.33 0 0.66 0 1 0 C1.06058594 1.18078125 1.12117187 2.3615625 1.18359375 3.578125 C1.26802582 5.1354277 1.35267249 6.69271879 1.4375 8.25 C1.47681641 9.02730469 1.51613281 9.80460938 1.55664062 10.60546875 C1.59853516 11.35957031 1.64042969 12.11367187 1.68359375 12.890625 C1.72025146 13.58188477 1.75690918 14.27314453 1.79467773 14.98535156 C1.94841502 17.0408351 1.94841502 17.0408351 2.58227539 19.13183594 C3 21 3 21 2 23 C1.01 23 0.02 23 -1 23 C-2.2494597 18.33783695 -1.94585594 14.00668926 -1.625 9.25 C-1.58117187 8.47011719 -1.53734375 7.69023437 -1.4921875 6.88671875 C-1.13188486 1.13188486 -1.13188486 1.13188486 0 0 Z " fill="#D4B81B" transform="translate(139,192)"/>
<path d="M0 0 C0.33 0 0.66 0 1 0 C1.04898437 1.03640625 1.09796875 2.0728125 1.1484375 3.140625 C1.22349597 4.51044208 1.29904247 5.88023248 1.375 7.25 C1.4059375 7.93191406 1.436875 8.61382812 1.46875 9.31640625 C1.68259374 12.98739038 2.01077055 15.86251616 4 19 C5.32 19 6.64 19 8 19 C8.33 21.97 8.66 24.94 9 28 C4.83313092 26.61104364 3.88975951 23.69535969 2 20 C1.63261719 19.43410156 1.26523437 18.86820313 0.88671875 18.28515625 C-0.4524347 14.83403393 -0.20867598 11.39312338 -0.125 7.75 C-0.11597656 7.00492188 -0.10695313 6.25984375 -0.09765625 5.4921875 C-0.07418358 3.66131941 -0.03831525 1.83061762 0 0 Z " fill="#44AA81" transform="translate(22,184)"/>
<path d="M0 0 C0.33 0 0.66 0 1 0 C1 8.58 1 17.16 1 26 C0.34 26 -0.32 26 -1 26 C-1.22624982 22.4175621 -1.42787181 18.83414899 -1.625 15.25 C-1.68945312 14.23421875 -1.75390625 13.2184375 -1.8203125 12.171875 C-1.871875 11.1921875 -1.9234375 10.2125 -1.9765625 9.203125 C-2.02893066 8.30239258 -2.08129883 7.40166016 -2.13525391 6.47363281 C-1.98965654 3.81083053 -1.35693395 2.26927521 0 0 Z " fill="#2D2D2D" transform="translate(830,130)"/>
<path d="M0 0 C1.65 0 3.3 0 5 0 C4.835 0.66 4.67 1.32 4.5 2 C3.87816701 5.73099794 3.93591074 9.21873378 4 13 C4.66 13 5.32 13 6 13 C6 14.65 6 16.3 6 18 C2.10486551 13.54841773 0.12648027 8.36096503 -0.1875 2.5 C-0.125625 1.675 -0.06375 0.85 0 0 Z " fill="#20D6F0" transform="translate(25,93)"/>
<path d="M0 0 C0.99 0.495 0.99 0.495 2 1 C2.33 1.99 2.66 2.98 3 4 C3.66 4.33 4.32 4.66 5 5 C5.144375 5.61875 5.28875 6.2375 5.4375 6.875 C6.1259613 9.4758538 6.89425179 10.34548355 9 12 C9.845625 12.309375 10.69125 12.61875 11.5625 12.9375 C14 14 14 14 15.3125 16.125 C15.539375 16.74375 15.76625 17.3625 16 18 C9.73473528 16.10143493 4.89317176 11.88724138 1.5625 6.3125 C0 3 0 3 0 0 Z " fill="#3DD0EA" transform="translate(23,59)"/>
<path d="M0 0 C3.97674419 3.85623679 3.97674419 3.85623679 4.04296875 7.11328125 C3.7798228 9.08863015 3.39718314 11.04718291 3 13 C4.32 13.66 5.64 14.32 7 15 C7 16.65 7 18.3 7 20 C2.60424223 16.51370936 1.20306469 12.31130781 0 7 C-0.20624974 4.59521581 -0.15434373 2.41805175 0 0 Z " fill="#EDB925" transform="translate(162,189)"/>
<path d="M0 0 C-7.58168134 3.43321419 -14.58273689 4.19790186 -22.6875 2 C-23.8321875 1.505 -23.8321875 1.505 -25 1 C-21.8091702 0.04349833 -19.00931278 -0.0751754 -15.6875 0 C-12.38194386 0.03971963 -9.26073826 -0.01324985 -6 -0.5625 C-3 -1 -3 -1 0 0 Z " fill="#38D2ED" transform="translate(64,77)"/>
<path d="M0 0 C-0.33 0.66 -0.66 1.32 -1 2 C-3.32156597 2.40729228 -5.6568787 2.74438677 -8 3 C-8 3.66 -8 4.32 -8 5 C-12.95 6.485 -12.95 6.485 -18 8 C-12.87093383 2.24922884 -7.81452982 -0.57179486 0 0 Z " fill="#F0B72B" transform="translate(190,163)"/>
<path d="M0 0 C0 0.66 0 1.32 0 2 C-0.99 2 -1.98 2 -3 2 C-3.103125 2.72574219 -3.20625 3.45148438 -3.3125 4.19921875 C-4.06838428 7.27858824 -5.20644128 9.21270215 -7 11.8125 C-7.53625 12.60269531 -8.0725 13.39289063 -8.625 14.20703125 C-9.07875 14.79871094 -9.5325 15.39039063 -10 16 C-10.33 16 -10.66 16 -11 16 C-11.43864653 11.48356539 -10.27507307 9.36275268 -7.625 5.75 C-6.99851563 4.87859375 -6.37203125 4.0071875 -5.7265625 3.109375 C-3.81804298 0.77769957 -3.01859652 0 0 0 Z " fill="#C28907" transform="translate(138,153)"/>
<path d="M0 0 C2.33294775 -0.04241723 4.66702567 -0.04092937 7 0 C7.33 0.33 7.66 0.66 8 1 C10.01594582 1.23427778 12.038474 1.41336124 14.0625 1.5625 C15.16722656 1.64628906 16.27195312 1.73007813 17.41015625 1.81640625 C18.26480469 1.87699219 19.11945312 1.93757812 20 2 C20 1.34 20 0.68 20 0 C20.99 0.33 21.98 0.66 23 1 C19.70979407 4.29020593 15.50202063 3.95517191 11 4 C3.0257732 3.0257732 3.0257732 3.0257732 0 0 Z " fill="#3FAA80" transform="translate(38,217)"/>
<path d="M0 0 C2.47322522 3.70983783 2.29636889 6.58587785 2.25 10.875 C2.25773438 11.58269531 2.26546875 12.29039063 2.2734375 13.01953125 C2.25815975 17.12160618 1.82216616 20.31228278 0 24 C-0.33 24 -0.66 24 -1 24 C-2.25 17.375 -2.25 17.375 0 14 C0.24270825 10.56692835 0.24270825 10.56692835 0.125 6.8125 C0.10695312 5.54019531 0.08890625 4.26789062 0.0703125 2.95703125 C0.04710937 1.98121094 0.02390625 1.00539062 0 0 Z " fill="#E15D5B" transform="translate(218,40)"/>
<path d="M0 0 C2.44358168 3.66537252 3.72189872 7.36872864 5.1875 11.5 C5.47302734 12.27214844 5.75855469 13.04429687 6.05273438 13.83984375 C6.31763672 14.58363281 6.58253906 15.32742187 6.85546875 16.09375 C7.09934326 16.77115234 7.34321777 17.44855469 7.59448242 18.14648438 C8 20 8 20 7 23 C6.67386719 22.13117188 6.34773437 21.26234375 6.01171875 20.3671875 C5.57472656 19.21476562 5.13773438 18.06234375 4.6875 16.875 C4.25824219 15.73804688 3.82898438 14.60109375 3.38671875 13.4296875 C2.05147207 9.9781892 2.05147207 9.9781892 0.3125 6.71875 C-1 4 -1 4 -0.6875 1.625 C-0.460625 1.08875 -0.23375 0.5525 0 0 Z " fill="#ECB63B" transform="translate(210,127)"/>
<path d="M0 0 C0.165 0.639375 0.33 1.27875 0.5 1.9375 C1.781786 4.16119241 1.781786 4.16119241 3.9140625 4.48828125 C5.93575155 4.7275978 7.96841939 4.86893028 10 5 C10.33 6.32 10.66 7.64 11 9 C9.54096742 8.69078116 8.08279278 8.37751201 6.625 8.0625 C5.81289062 7.88847656 5.00078125 7.71445313 4.1640625 7.53515625 C2 7 2 7 0 6 C0 4.02 0 2.04 0 0 Z " fill="#F1C121" transform="translate(127,205)"/>
<path d="M0 0 C3.79949062 4.88505937 6.27294686 8.74734298 7 15 C3.28253621 11.79528984 1.64371698 8.60240754 0 4 C0 2.68 0 1.36 0 0 Z " fill="#E15E5C" transform="translate(163,55)"/>
<path d="M0 0 C0.33 0 0.66 0 1 0 C0.88601335 1.62580966 0.75844341 3.25067157 0.625 4.875 C0.55539063 5.77992188 0.48578125 6.68484375 0.4140625 7.6171875 C0 10 0 10 -2 12 C-2 10.35 -2 8.7 -2 7 C-2.99 6.67 -3.98 6.34 -5 6 C-3.35830472 3.97945196 -1.69088222 1.97956942 0 0 Z " fill="#37AA7D" transform="translate(79,190)"/>
<path d="M0 0 C0 6.18548908 -3.67237659 11.00856488 -7 16 C-6.47160965 9.52721816 -4.72090235 4.72090235 0 0 Z " fill="#E9B932" transform="translate(170,172)"/>
<path d="M0 0 C1.32 0 2.64 0 4 0 C4 2.97 4 5.94 4 9 C3.01 8.67 2.02 8.34 1 8 C0.67 5.36 0.34 2.72 0 0 Z " fill="#B7364A" transform="translate(150,93)"/>
<path d="M0 0 C5.58600091 0.41895007 9.62501555 2.6482816 14 6 C14.33 6.66 14.66 7.32 15 8 C12.5625 7.625 12.5625 7.625 10 7 C9.67 6.34 9.34 5.68 9 5 C6.88984046 3.87293294 6.88984046 3.87293294 4.4375 2.875 C3.61121094 2.52179687 2.78492188 2.16859375 1.93359375 1.8046875 C1.29550781 1.53914063 0.65742187 1.27359375 0 1 C0 0.67 0 0.34 0 0 Z " fill="#2BD0E6" transform="translate(56,23)"/>
<path d="M0 0 C0.66 0.33 1.32 0.66 2 1 C1.484375 1.598125 0.96875 2.19625 0.4375 2.8125 C-0.2740625 3.8953125 -0.2740625 3.8953125 -1 5 C-0.67 5.99 -0.34 6.98 0 8 C-1.32 8.33 -2.64 8.66 -4 9 C-4 9.66 -4 10.32 -4 11 C-4.66 11 -5.32 11 -6 11 C-4.88059018 6.14922412 -3.8665284 3.222107 0 0 Z " fill="#42AC81" transform="translate(29,172)"/>
<path d="M0 0 C1.75 0.125 1.75 0.125 4 1 C8 6.22222222 8 6.22222222 8 9 C6.68 8.67 5.36 8.34 4 8 C4 6.68 4 5.36 4 4 C2.68 3.67 1.36 3.34 0 3 C0 2.01 0 1.02 0 0 Z " fill="#F3B522" transform="translate(209,170)"/>
<path d="M0 0 C0.721875 0.763125 1.44375 1.52625 2.1875 2.3125 C4.69790967 4.71133591 6.96808302 6.35410221 10 8 C7.2050298 9.13869156 6.17318422 9.06846818 3.3125 7.9375 C1 6 1 6 0.1875 2.8125 C0.125625 1.884375 0.06375 0.95625 0 0 Z " fill="#CA3940" transform="translate(158,106)"/>
<path d="M0 0 C0.75 1.75 0.75 1.75 1 4 C-1.11648137 6.5700131 -3.22154417 8.14769611 -6 10 C-6.99 9.67 -7.98 9.34 -9 9 C-8.51789063 8.60167969 -8.03578125 8.20335938 -7.5390625 7.79296875 C-6.90742187 7.26316406 -6.27578125 6.73335938 -5.625 6.1875 C-4.99851562 5.66542969 -4.37203125 5.14335938 -3.7265625 4.60546875 C-1.7778952 2.91774261 -1.7778952 2.91774261 0 0 Z " fill="#00A8D8" transform="translate(113,76)"/>
<path d="M0 0 C0.99 0 1.98 0 3 0 C2.25 2.9375 2.25 2.9375 1 6 C-1.125 6.875 -1.125 6.875 -3 7 C-2.38722388 4.03824877 -1.74627478 2.61941217 0 0 Z " fill="#20D6F1" transform="translate(28,32)"/>
<path d="M0 0 C0 0.66 0 1.32 0 2 C-2.78863007 3.39431504 -4.92078868 3.25660094 -8 3 C-8.66 2.01 -9.32 1.02 -10 0 C-6.22799206 -1.25733598 -3.74702285 -1.03366148 0 0 Z " fill="#1B1B1B" transform="translate(701,156)"/>
<path d="M0 0 C0.33 0.99 0.66 1.98 1 3 C2.65 3.33 4.3 3.66 6 4 C6 4.99 6 5.98 6 7 C1.75177626 6.52797514 -0.19989709 4.03344482 -3 1 C-2.01 0.67 -1.02 0.34 0 0 Z " fill="#EEB626" transform="translate(173,210)"/>
<path d="M0 0 C0.33 0.66 0.66 1.32 1 2 C1.66 2 2.32 2 3 2 C3.33 5.63 3.66 9.26 4 13 C0.625 8.5 0.625 8.5 0.3125 4.25 C0.24675781 3.45078125 0.18101562 2.6515625 0.11328125 1.828125 C0.07589844 1.22484375 0.03851563 0.6215625 0 0 Z " fill="#E3464D" transform="translate(154,93)"/>
<path d="M0 0 C0.33 0.66 0.66 1.32 1 2 C1.66 2 2.32 2 3 2 C3 2.66 3 3.32 3 4 C1.73392393 4.53229326 0.46189588 5.05044544 -0.8125 5.5625 C-1.52019531 5.85253906 -2.22789063 6.14257812 -2.95703125 6.44140625 C-5 7 -5 7 -8 6 C-7.34 6 -6.68 6 -6 6 C-6 5.34 -6 4.68 -6 4 C-4.35 3.67 -2.7 3.34 -1 3 C-0.67 2.01 -0.34 1.02 0 0 Z " fill="#3CA97A" transform="translate(106,209)"/>
<path d="M0 0 C0.99 0 1.98 0 3 0 C3 3.3 3 6.6 3 10 C2.67 9.01 2.34 8.02 2 7 C1.34 7 0.68 7 0 7 C0 4.69 0 2.38 0 0 Z " fill="#1D1D1D" transform="translate(334,110)"/>
<path d="M0 0 C1.65 0 3.3 0 5 0 C4.01 0.495 4.01 0.495 3 1 C3 3.97 3 6.94 3 10 C0.64551835 7.44931155 0.01672076 6.28982642 -0.1875 2.75 C-0.125625 1.8425 -0.06375 0.935 0 0 Z " fill="#2BD8F4" transform="translate(25,93)"/>
<path d="M0 0 C1.98 1.65 3.96 3.3 6 5 C3 6 3 6 0.95703125 5.22265625 C0.24933594 4.83980469 -0.45835937 4.45695312 -1.1875 4.0625 C-1.90292969 3.68222656 -2.61835938 3.30195312 -3.35546875 2.91015625 C-3.89816406 2.60980469 -4.44085938 2.30945313 -5 2 C-4.34 1.67 -3.68 1.34 -3 1 C-2.01 1.33 -1.02 1.66 0 2 C0 1.34 0 0.68 0 0 Z " fill="#E35B5A" transform="translate(180,73)"/>
<path d="M0 0 C-1.25 1.5 -1.25 1.5 -3 3 C-4.32 3 -5.64 3 -7 3 C-7 2.34 -7 1.68 -7 1 C-8.32 0.67 -9.64 0.34 -11 0 C-7.01803543 -1.05404945 -4.01804691 -0.84098656 0 0 Z " fill="#1E1E1E" transform="translate(308,156)"/>
<path d="M0 0 C0.66 0 1.32 0 2 0 C2.33 2.97 2.66 5.94 3 9 C2.01 9 1.02 9 0 9 C0 6.03 0 3.06 0 0 Z " fill="#2DA981" transform="translate(91,141)"/>
<path d="M0 0 C1.65 0 3.3 0 5 0 C3.70700306 2.88437779 2.34058637 4.87219421 0 7 C0 4.69 0 2.38 0 0 Z " fill="#1F1F1F" transform="translate(465,126)"/>
<path d="M0 0 C0.33 0 0.66 0 1 0 C1 2.64 1 5.28 1 8 C0.34 7.34 -0.32 6.68 -1 6 C-3.10820797 6.3185177 -3.10820797 6.3185177 -5 7 C-4.19152271 5.83054208 -3.37810888 4.66449539 -2.5625 3.5 C-2.11003906 2.8503125 -1.65757813 2.200625 -1.19140625 1.53125 C-0.79824219 1.0259375 -0.40507813 0.520625 0 0 Z " fill="#09CEF7" transform="translate(113,80)"/>
<path d="M0 0 C0.66 0 1.32 0 2 0 C2.33 0.99 2.66 1.98 3 3 C3.66 3.66 4.32 4.32 5 5 C-1.15234375 4.4140625 -1.15234375 4.4140625 -3 4 C-3.33 3.34 -3.66 2.68 -4 2 C-2.68 2 -1.36 2 0 2 C0 1.34 0 0.68 0 0 Z " fill="#0DD7FB" transform="translate(42,73)"/>
<path d="M0 0 C1.48117801 0.28127421 2.95993249 0.57533732 4.4375 0.875 C5.67306641 1.11863281 5.67306641 1.11863281 6.93359375 1.3671875 C7.61550781 1.57601563 8.29742187 1.78484375 9 2 C9.33 2.66 9.66 3.32 10 4 C7.03 3.67 4.06 3.34 1 3 C0.67 2.01 0.34 1.02 0 0 Z " fill="#32CBE5" transform="translate(105,29)"/>
<path d="M0 0 C0.66 0 1.32 0 2 0 C1.6875 3.375 1.6875 3.375 1 7 C0.01 7.66 -0.98 8.32 -2 9 C-1.34 6.03 -0.68 3.06 0 0 Z " fill="#44A682" transform="translate(31,127)"/>
<path d="M0 0 C1.125 1.625 1.125 1.625 2 4 C1.125 7.25 1.125 7.25 0 10 C-0.33 10 -0.66 10 -1 10 C-2.25 3.375 -2.25 3.375 0 0 Z " fill="#EC5152" transform="translate(218,54)"/>
<path d="M0 0 C0.33 0.66 0.66 1.32 1 2 C3.02463255 2.65213292 3.02463255 2.65213292 5 3 C4.01 4.485 4.01 4.485 3 6 C2.01 6 1.02 6 0 6 C0 4.02 0 2.04 0 0 Z " fill="#F1B10A" transform="translate(128,154)"/>
<path d="M0 0 C2.64 0 5.28 0 8 0 C7.67 0.66 7.34 1.32 7 2 C4.67843403 2.40729228 2.3431213 2.74438677 0 3 C0 2.01 0 1.02 0 0 Z " fill="#B28018" transform="translate(140,152)"/>
<path d="M0 0 C0.33 0 0.66 0 1 0 C1.22174933 1.45635371 1.42698698 2.91522956 1.625 4.375 C1.74101563 5.18710938 1.85703125 5.99921875 1.9765625 6.8359375 C1.98429688 7.55007812 1.99203125 8.26421875 2 9 C1.34 9.66 0.68 10.32 0 11 C-1.37432457 7.18243176 -0.67975039 3.92744671 0 0 Z " fill="#1C1C1C" transform="translate(661,109)"/>
<path d="M0 0 C1.32 0.66 2.64 1.32 4 2 C4 2.66 4 3.32 4 4 C3.34 4 2.68 4 2 4 C1.67 4.66 1.34 5.32 1 6 C-0.0625 4.125 -0.0625 4.125 -1 2 C-0.67 1.34 -0.34 0.68 0 0 Z " fill="#1D1D1D" transform="translate(258,115)"/>
<path d="M0 0 C2.375 0.25 2.375 0.25 5 1 C6.3125 3.0625 6.3125 3.0625 7 5 C2.25 3.125 2.25 3.125 0 2 C0 1.34 0 0.68 0 0 Z " fill="#29D3F0" transform="translate(32,72)"/>
<path d="" fill="#00FFFF" transform="translate(0,0)"/>
</svg>
